<svg viewBox="0 0 512 512" xmlns="http://www.w3.org/2000/svg"><path d="m256 482h256v30h-256zm0 0" fill="#fdbf00"/><path d="m256 482h256v30h-256zm0 0" fill="#ff9100"/><path d="m437.019531 74.980469c-48.351562-48.351563-112.640625-74.980469-181.019531-74.980469s-132.667969 26.628906-181.019531 74.980469c-48.351563 48.351562-74.980469 112.640625-74.980469 181.019531s26.628906 132.667969 74.980469 181.019531c48.351562 48.351563 112.640625 74.980469 181.019531 74.980469s132.667969-26.628906 181.019531-74.980469c48.351563-48.351562 74.980469-112.640625 74.980469-181.019531s-26.628906-132.667969-74.980469-181.019531zm0 0" fill="#444"/><path d="m437.019531 74.980469c-48.351562-48.351563-112.640625-74.980469-181.019531-74.980469v512c68.378906 0 132.667969-26.628906 181.019531-74.980469 48.351563-48.351562 74.980469-112.640625 74.980469-181.019531s-26.628906-132.667969-74.980469-181.019531zm0 0" fill="#292929"/><path d="m256 205.488281c-27.851562 0-50.511719 22.660157-50.511719 50.511719s22.660157 50.511719 50.511719 50.511719 50.511719-22.660157 50.511719-50.511719-22.660157-50.511719-50.511719-50.511719zm0 0" fill="#fdbf00"/><path d="m256 175.847656c35.125 0 63.699219-28.578125 63.699219-63.703125 0-35.121093-28.574219-63.699219-63.699219-63.699219s-63.699219 28.578126-63.699219 63.699219c0 35.125 28.574219 63.703125 63.699219 63.703125zm0 0" fill="#00d7df"/><path d="m256 336.152344c-35.125 0-63.699219 28.578125-63.699219 63.703125 0 35.121093 28.574219 63.699219 63.699219 63.699219s63.699219-28.578126 63.699219-63.699219c0-35.125-28.574219-63.703125-63.699219-63.703125zm0 0" fill="#00d7df"/><path d="m325.460938 216c8.488281 14.742188 22.214843 25.300781 38.644531 29.722656 5.507812 1.480469 11.101562 2.214844 16.65625 2.214844 11.015625 0 21.886719-2.882812 31.6875-8.527344 14.746093-8.488281 25.300781-22.214844 29.722656-38.644531s2.179687-33.601563-6.3125-48.34375-22.214844-25.300781-38.644531-29.722656c-16.433594-4.421875-33.601563-2.179688-48.34375 6.3125-14.746094 8.492187-25.300782 22.214843-29.722656 38.644531-4.421876 16.433594-2.179688 33.597656 6.3125 48.34375zm0 0" fill="#ff0059"/><path d="m186.539062 296c-8.488281-14.742188-22.214843-25.300781-38.644531-29.722656-16.429687-4.421875-33.597656-2.179688-48.34375 6.3125-14.746093 8.488281-25.300781 22.214844-29.722656 38.644531s-2.179687 33.601563 6.3125 48.34375 22.214844 25.300781 38.644531 29.722656c5.511719 1.480469 11.101563 2.214844 16.65625 2.214844 11.015625 0 21.886719-2.882813 31.6875-8.527344 14.746094-8.492187 25.300782-22.214843 29.722656-38.644531 4.421876-16.433594 2.179688-33.597656-6.3125-48.34375zm0 0" fill="#ff0059"/><path d="m99.609375 238.878906c10.039063 5.828125 21.019531 8.59375 31.867187 8.59375 21.980469 0 43.394532-11.371094 55.199219-31.707031 17.632813-30.378906 7.261719-69.441406-23.117187-87.070313-30.375-17.628906-69.4375-7.261718-87.066406 23.117188-17.632813 30.378906-7.261719 69.4375 23.117187 87.066406zm0 0" fill="#a24bdb"/><path d="m412.390625 273.121094c-30.378906-17.632813-69.4375-7.261719-87.066406 23.113281-17.632813 30.378906-7.261719 69.441406 23.117187 87.070313 10.035156 5.824218 21.019532 8.59375 31.867188 8.59375 21.980468 0 43.394531-11.371094 55.199218-31.710938 17.632813-30.378906 7.261719-69.4375-23.117187-87.066406zm0 0" fill="#a24bdb"/><path d="m325.460938 216c8.488281 14.742188 22.214843 25.300781 38.644531 29.722656 5.507812 1.480469 11.101562 2.214844 16.65625 2.214844 11.015625 0 21.886719-2.882812 31.6875-8.527344 14.746093-8.488281 25.300781-22.214844 29.722656-38.644531s2.179687-33.601563-6.3125-48.34375-22.214844-25.300781-38.644531-29.722656c-16.433594-4.421875-33.601563-2.179688-48.34375 6.3125-14.746094 8.492187-25.300782 22.214843-29.722656 38.644531-4.421876 16.433594-2.179688 33.597656 6.3125 48.34375zm0 0" fill="#d20041"/><path d="m412.390625 273.121094c-30.378906-17.632813-69.4375-7.261719-87.066406 23.113281-17.632813 30.378906-7.261719 69.441406 23.117187 87.070313 10.035156 5.824218 21.019532 8.59375 31.867188 8.59375 21.980468 0 43.394531-11.371094 55.199218-31.710938 17.632813-30.378906 7.261719-69.4375-23.117187-87.066406zm0 0" fill="#ac2ca5"/><path d="m306.511719 256c0-27.851562-22.660157-50.511719-50.511719-50.511719v101.023438c27.851562 0 50.511719-22.660157 50.511719-50.511719zm0 0" fill="#ff9100"/><g fill="#00aadf"><path d="m319.699219 112.144531c0-35.121093-28.574219-63.699219-63.699219-63.699219v127.402344c35.125 0 63.699219-28.578125 63.699219-63.703125zm0 0"/><path d="m256 336.152344v127.402344c35.125 0 63.699219-28.578126 63.699219-63.699219 0-35.125-28.574219-63.703125-63.699219-63.703125zm0 0"/></g></svg>